<svg width="190" height="77" viewBox="0 0 190 77" fill="none" xmlns="http://www.w3.org/2000/svg">
<path d="M19.6969 75.6093C18.713 75.8572 17.4063 76.1206 15.7768 76.3994C14.178 76.6783 12.3178 76.8177 10.1964 76.8177C8.35159 76.8177 6.79892 76.5544 5.53833 76.0276C4.27774 75.4699 3.26312 74.6953 2.49447 73.7038C1.72582 72.7122 1.17239 71.5503 0.834183 70.218C0.495977 68.8546 0.326874 67.3519 0.326874 65.7097V52.1383H4.61595V64.7801C4.61595 67.7237 5.07714 69.8307 5.99952 71.101C6.9219 72.3714 8.47457 73.0066 10.6575 73.0066C11.1187 73.0066 11.5953 72.9911 12.0872 72.9601C12.5792 72.9291 13.0404 72.8982 13.4708 72.8672C13.9013 72.8052 14.2856 72.7587 14.6238 72.7277C14.9927 72.6658 15.2541 72.6038 15.4078 72.5418V52.1383H19.6969V75.6093ZM37.5089 76.8642C35.5719 76.8642 33.8655 76.5544 32.3897 75.9347C30.9446 75.315 29.7148 74.4474 28.7001 73.3319C27.7163 72.2165 26.9784 70.8996 26.4864 69.3814C25.9945 67.8321 25.7485 66.128 25.7485 64.2689C25.7485 62.4098 26.0099 60.7056 26.5325 59.1564C27.086 57.6072 27.8546 56.2748 28.8385 55.1594C29.8224 54.0129 31.0215 53.1299 32.4358 52.5102C33.8808 51.8595 35.4796 51.5341 37.2322 51.5341C38.3083 51.5341 39.3844 51.6271 40.4605 51.813C41.5366 51.9989 42.5666 52.2933 43.5505 52.6961L42.582 56.3678C41.9363 56.0579 41.183 55.81 40.3221 55.6241C39.492 55.4382 38.6004 55.3453 37.6472 55.3453C35.249 55.3453 33.4043 56.1044 32.1129 57.6227C30.8524 59.1409 30.2221 61.3563 30.2221 64.2689C30.2221 65.5702 30.3604 66.7632 30.6371 67.8476C30.9446 68.9321 31.4058 69.8616 32.0207 70.6363C32.6664 71.4109 33.4811 72.0151 34.465 72.4489C35.4489 72.8517 36.648 73.0531 38.0623 73.0531C39.1999 73.0531 40.2299 72.9446 41.1523 72.7277C42.0747 72.5108 42.7972 72.2785 43.3199 72.0306L43.9194 75.6558C43.6735 75.8107 43.3199 75.9656 42.8587 76.1206C42.3975 76.2445 41.8748 76.353 41.2906 76.4459C40.7065 76.5698 40.0762 76.6628 39.3998 76.7248C38.7541 76.8177 38.1238 76.8642 37.5089 76.8642ZM69.1073 64.2224C69.1073 66.1435 68.8306 67.8786 68.2772 69.4279C67.7237 70.9771 66.9397 72.3094 65.9251 73.4249C64.9412 74.5403 63.7575 75.4079 62.3739 76.0276C60.9903 76.6163 59.4838 76.9107 57.8542 76.9107C56.2247 76.9107 54.7182 76.6163 53.3346 76.0276C51.951 75.4079 50.7519 74.5403 49.7373 73.4249C48.7534 72.3094 47.9848 70.9771 47.4313 69.4279C46.8779 67.8786 46.6012 66.1435 46.6012 64.2224C46.6012 62.3323 46.8779 60.6127 47.4313 59.0634C47.9848 57.4832 48.7534 56.1354 49.7373 55.0199C50.7519 53.9045 51.951 53.0524 53.3346 52.4637C54.7182 51.844 56.2247 51.5341 57.8542 51.5341C59.4838 51.5341 60.9903 51.844 62.3739 52.4637C63.7575 53.0524 64.9412 53.9045 65.9251 55.0199C66.9397 56.1354 67.7237 57.4832 68.2772 59.0634C68.8306 60.6127 69.1073 62.3323 69.1073 64.2224ZM64.6338 64.2224C64.6338 61.4958 64.0188 59.3423 62.789 57.7621C61.5899 56.1509 59.945 55.3453 57.8542 55.3453C55.7635 55.3453 54.1032 56.1509 52.8734 57.7621C51.6743 59.3423 51.0747 61.4958 51.0747 64.2224C51.0747 66.9491 51.6743 69.118 52.8734 70.7292C54.1032 72.3094 55.7635 73.0996 57.8542 73.0996C59.945 73.0996 61.5899 72.3094 62.789 70.7292C64.0188 69.118 64.6338 66.9491 64.6338 64.2224ZM75.1417 52.8355C76.1256 52.5876 77.4323 52.3243 79.0618 52.0454C80.6914 51.7665 82.5669 51.6271 84.6884 51.6271C86.5946 51.6271 88.178 51.906 89.4386 52.4637C90.6992 52.9904 91.6985 53.7496 92.4364 54.7411C93.205 55.7016 93.7431 56.8635 94.0505 58.2269C94.358 59.5902 94.5117 61.0929 94.5117 62.7351V76.3065H90.2227V63.6647C90.2227 62.1774 90.115 60.907 89.8998 59.8536C89.7153 58.8001 89.3925 57.948 88.9313 57.2973C88.4701 56.6466 87.8552 56.1819 87.0866 55.903C86.3179 55.5931 85.3648 55.4382 84.2272 55.4382C83.766 55.4382 83.2894 55.4537 82.7975 55.4847C82.3056 55.5157 81.829 55.5622 81.3678 55.6241C80.9374 55.6551 80.5377 55.7016 80.1687 55.7636C79.8305 55.8255 79.5845 55.872 79.4308 55.903V76.3065H75.1417V52.8355ZM101.624 52.8355C102.608 52.5876 103.914 52.3243 105.544 52.0454C107.173 51.7665 109.049 51.6271 111.17 51.6271C113.077 51.6271 114.66 51.906 115.921 52.4637C117.181 52.9904 118.181 53.7496 118.918 54.7411C119.687 55.7016 120.225 56.8635 120.533 58.2269C120.84 59.5902 120.994 61.0929 120.994 62.7351V76.3065H116.705V63.6647C116.705 62.1774 116.597 60.907 116.382 59.8536C116.197 58.8001 115.875 57.948 115.413 57.2973C114.952 56.6466 114.337 56.1819 113.569 55.903C112.8 55.5931 111.847 55.4382 110.709 55.4382C110.248 55.4382 109.772 55.4537 109.28 55.4847C108.788 55.5157 108.311 55.5622 107.85 55.6241C107.419 55.6551 107.02 55.7016 106.651 55.7636C106.313 55.8255 106.067 55.872 105.913 55.903V76.3065H101.624V52.8355ZM126.769 64.2689C126.769 62.1309 127.076 60.2719 127.691 58.6916C128.306 57.0804 129.121 55.7481 130.136 54.6946C131.15 53.6411 132.319 52.851 133.641 52.3243C134.963 51.7975 136.316 51.5341 137.699 51.5341C140.927 51.5341 143.403 52.5566 145.124 54.6016C146.846 56.6156 147.707 59.6986 147.707 63.8506C147.707 64.0365 147.707 64.2844 147.707 64.5942C147.707 64.8731 147.692 65.1365 147.661 65.3843H131.242C131.427 67.8941 132.15 69.7997 133.41 71.101C134.671 72.4024 136.638 73.0531 139.313 73.0531C140.82 73.0531 142.08 72.9291 143.095 72.6813C144.14 72.4024 144.924 72.139 145.447 71.8911L146.047 75.5164C145.524 75.7952 144.602 76.0896 143.28 76.3994C141.988 76.7093 140.512 76.8642 138.852 76.8642C136.761 76.8642 134.947 76.5544 133.41 75.9347C131.904 75.284 130.658 74.4009 129.674 73.2855C128.691 72.17 127.953 70.8532 127.461 69.3349C127 67.7857 126.769 66.097 126.769 64.2689ZM143.233 61.8986C143.264 59.9465 142.772 58.3508 141.758 57.1114C140.774 55.841 139.406 55.2058 137.653 55.2058C136.669 55.2058 135.793 55.4072 135.024 55.81C134.286 56.1819 133.656 56.6776 133.133 57.2973C132.611 57.917 132.196 58.6297 131.888 59.4353C131.611 60.2409 131.427 61.062 131.335 61.8986H143.233ZM164.291 76.8642C162.354 76.8642 160.648 76.5544 159.172 75.9347C157.727 75.315 156.497 74.4474 155.483 73.3319C154.499 72.2165 153.761 70.8996 153.269 69.3814C152.777 67.8321 152.531 66.128 152.531 64.2689C152.531 62.4098 152.792 60.7056 153.315 59.1564C153.869 57.6072 154.637 56.2748 155.621 55.1594C156.605 54.0129 157.804 53.1299 159.218 52.5102C160.663 51.8595 162.262 51.5341 164.015 51.5341C165.091 51.5341 166.167 51.6271 167.243 51.813C168.319 51.9989 169.349 52.2933 170.333 52.6961L169.365 56.3678C168.719 56.0579 167.966 55.81 167.105 55.6241C166.275 55.4382 165.383 55.3453 164.43 55.3453C162.032 55.3453 160.187 56.1044 158.895 57.6227C157.635 59.1409 157.005 61.3563 157.005 64.2689C157.005 65.5702 157.143 66.7632 157.42 67.8476C157.727 68.9321 158.188 69.8616 158.803 70.6363C159.449 71.4109 160.264 72.0151 161.248 72.4489C162.231 72.8517 163.431 73.0531 164.845 73.0531C165.982 73.0531 167.012 72.9446 167.935 72.7277C168.857 72.5108 169.58 72.2785 170.102 72.0306L170.702 75.6558C170.456 75.8107 170.102 75.9656 169.641 76.1206C169.18 76.2445 168.657 76.353 168.073 76.4459C167.489 76.5698 166.859 76.6628 166.182 76.7248C165.537 76.8177 164.906 76.8642 164.291 76.8642ZM179.319 52.1383H188.404V55.7636H179.319V66.9181C179.319 68.1265 179.411 69.1335 179.596 69.9391C179.78 70.7137 180.057 71.3334 180.426 71.7982C180.795 72.232 181.256 72.5418 181.809 72.7277C182.363 72.9136 183.009 73.0066 183.746 73.0066C185.038 73.0066 186.068 72.8672 186.836 72.5883C187.636 72.2785 188.189 72.0616 188.497 71.9376L189.327 75.5164C188.896 75.7333 188.143 75.9966 187.067 76.3065C185.991 76.6473 184.761 76.8177 183.378 76.8177C181.748 76.8177 180.395 76.6163 179.319 76.2135C178.274 75.7797 177.428 75.1445 176.782 74.308C176.137 73.4714 175.676 72.4489 175.399 71.2405C175.153 70.0011 175.03 68.5758 175.03 66.9646V45.3992L179.319 44.6555V52.1383Z" fill="#3E6CC8"/>
<path d="M64.0428 45.3225C68.288 45.3225 71.7293 41.8544 71.7293 37.5763C71.7293 33.2982 68.288 29.8301 64.0428 29.8301C59.7977 29.8301 56.3563 33.2982 56.3563 37.5763C56.3563 41.8544 59.7977 45.3225 64.0428 45.3225Z" fill="url(#paint0_linear)"/>
<path d="M64.0428 45.3225C68.288 45.3225 71.7293 41.8544 71.7293 37.5763C71.7293 33.2982 68.288 29.8301 64.0428 29.8301C59.7977 29.8301 56.3563 33.2982 56.3563 37.5763C56.3563 41.8544 59.7977 45.3225 64.0428 45.3225Z" fill="url(#paint1_linear)"/>
<path d="M64.0428 45.3225C68.288 45.3225 71.7293 41.8544 71.7293 37.5763C71.7293 33.2982 68.288 29.8301 64.0428 29.8301C59.7977 29.8301 56.3563 33.2982 56.3563 37.5763C56.3563 41.8544 59.7977 45.3225 64.0428 45.3225Z" fill="url(#paint2_linear)"/>
<path d="M64.0428 44.8055C68.005 44.8055 71.2169 41.5686 71.2169 37.5757C71.2169 33.5828 68.005 30.3459 64.0428 30.3459C60.0807 30.3459 56.8688 33.5828 56.8688 37.5757C56.8688 41.5686 60.0807 44.8055 64.0428 44.8055Z" stroke="#BDBDBD" stroke-opacity="0.3"/>
<path d="M152.694 45.3226C156.656 45.3226 159.868 42.0857 159.868 38.0928C159.868 34.0999 156.656 30.863 152.694 30.863C148.732 30.863 145.52 34.0999 145.52 38.0928C145.52 42.0857 148.732 45.3226 152.694 45.3226Z" fill="url(#paint3_linear)"/>
<path d="M152.694 45.3226C156.656 45.3226 159.868 42.0857 159.868 38.0928C159.868 34.0999 156.656 30.863 152.694 30.863C148.732 30.863 145.52 34.0999 145.52 38.0928C145.52 42.0857 148.732 45.3226 152.694 45.3226Z" fill="url(#paint4_linear)"/>
<path d="M152.694 45.3226C156.656 45.3226 159.868 42.0857 159.868 38.0928C159.868 34.0999 156.656 30.863 152.694 30.863C148.732 30.863 145.52 34.0999 145.52 38.0928C145.52 42.0857 148.732 45.3226 152.694 45.3226Z" fill="url(#paint5_linear)"/>
<path d="M152.694 44.8056C156.373 44.8056 159.355 41.8 159.355 38.0923C159.355 34.3846 156.373 31.3789 152.694 31.3789C149.015 31.3789 146.032 34.3846 146.032 38.0923C146.032 41.8 149.015 44.8056 152.694 44.8056Z" stroke="#BDBDBD" stroke-opacity="0.3"/>
<path d="M85.5648 28.797C93.2061 28.797 99.4006 22.5544 99.4006 14.8538C99.4006 7.15321 93.2061 0.910645 85.5648 0.910645C77.9236 0.910645 71.7291 7.15321 71.7291 14.8538C71.7291 22.5544 77.9236 28.797 85.5648 28.797Z" fill="url(#paint6_linear)"/>
<path d="M85.5648 28.797C93.2061 28.797 99.4006 22.5544 99.4006 14.8538C99.4006 7.15321 93.2061 0.910645 85.5648 0.910645C77.9236 0.910645 71.7291 7.15321 71.7291 14.8538C71.7291 22.5544 77.9236 28.797 85.5648 28.797Z" fill="url(#paint7_linear)"/>
<path d="M85.5648 28.797C93.2061 28.797 99.4006 22.5544 99.4006 14.8538C99.4006 7.15321 93.2061 0.910645 85.5648 0.910645C77.9236 0.910645 71.7291 7.15321 71.7291 14.8538C71.7291 22.5544 77.9236 28.797 85.5648 28.797Z" fill="url(#paint8_linear)"/>
<path d="M85.565 28.28C92.9232 28.28 98.8883 22.2686 98.8883 14.8533C98.8883 7.43787 92.9232 1.42651 85.565 1.42651C78.2067 1.42651 72.2417 7.43787 72.2417 14.8533C72.2417 22.2686 78.2067 28.28 85.565 28.28Z" stroke="#BDBDBD" stroke-opacity="0.3"/>
<path d="M122.972 38.0918C129.765 38.0918 135.271 32.5428 135.271 25.6979C135.271 18.8529 129.765 13.304 122.972 13.304C116.18 13.304 110.674 18.8529 110.674 25.6979C110.674 32.5428 116.18 38.0918 122.972 38.0918Z" fill="url(#paint9_linear)"/>
<path d="M122.972 38.0918C129.765 38.0918 135.271 32.5428 135.271 25.6979C135.271 18.8529 129.765 13.304 122.972 13.304C116.18 13.304 110.674 18.8529 110.674 25.6979C110.674 32.5428 116.18 38.0918 122.972 38.0918Z" fill="url(#paint10_linear)"/>
<path d="M122.972 38.0918C129.765 38.0918 135.271 32.5428 135.271 25.6979C135.271 18.8529 129.765 13.304 122.972 13.304C116.18 13.304 110.674 18.8529 110.674 25.6979C110.674 32.5428 116.18 38.0918 122.972 38.0918Z" fill="url(#paint11_linear)"/>
<path d="M122.973 37.5763C129.482 37.5763 134.759 32.2586 134.759 25.6988C134.759 19.139 129.482 13.8213 122.973 13.8213C116.463 13.8213 111.187 19.139 111.187 25.6988C111.187 32.2586 116.463 37.5763 122.973 37.5763Z" stroke="#BDBDBD" stroke-opacity="0.3"/>
<defs>
<linearGradient id="paint0_linear" x1="71.7293" y1="29.8301" x2="71.7293" y2="45.3225" gradientUnits="userSpaceOnUse">
<stop stop-color="white" stop-opacity="0"/>
<stop offset="0.9999" stop-color="#4F4F4F"/>
</linearGradient>
<linearGradient id="paint1_linear" x1="71.7293" y1="29.8301" x2="71.7293" y2="45.3225" gradientUnits="userSpaceOnUse">
<stop offset="0.392265" stop-color="white" stop-opacity="0"/>
<stop offset="0.917127" stop-color="white"/>
</linearGradient>
<linearGradient id="paint2_linear" x1="71.7293" y1="29.8301" x2="71.7293" y2="45.3225" gradientUnits="userSpaceOnUse">
<stop stop-color="white"/>
<stop offset="1" stop-color="white" stop-opacity="0"/>
</linearGradient>
<linearGradient id="paint3_linear" x1="159.868" y1="30.863" x2="159.868" y2="45.3226" gradientUnits="userSpaceOnUse">
<stop stop-color="white" stop-opacity="0"/>
<stop offset="0.9999" stop-color="#4F4F4F"/>
</linearGradient>
<linearGradient id="paint4_linear" x1="159.868" y1="30.863" x2="159.868" y2="45.3226" gradientUnits="userSpaceOnUse">
<stop offset="0.392265" stop-color="white" stop-opacity="0"/>
<stop offset="0.917127" stop-color="white"/>
</linearGradient>
<linearGradient id="paint5_linear" x1="159.868" y1="30.863" x2="159.868" y2="45.3226" gradientUnits="userSpaceOnUse">
<stop stop-color="white"/>
<stop offset="1" stop-color="white" stop-opacity="0"/>
</linearGradient>
<linearGradient id="paint6_linear" x1="99.4006" y1="0.910645" x2="99.4006" y2="28.797" gradientUnits="userSpaceOnUse">
<stop stop-color="white" stop-opacity="0"/>
<stop offset="0.9999" stop-color="#4F4F4F"/>
</linearGradient>
<linearGradient id="paint7_linear" x1="99.4006" y1="0.910645" x2="99.4006" y2="28.797" gradientUnits="userSpaceOnUse">
<stop offset="0.392265" stop-color="white" stop-opacity="0"/>
<stop offset="0.917127" stop-color="white"/>
</linearGradient>
<linearGradient id="paint8_linear" x1="99.4006" y1="0.910645" x2="99.4006" y2="28.797" gradientUnits="userSpaceOnUse">
<stop stop-color="white"/>
<stop offset="1" stop-color="white" stop-opacity="0"/>
</linearGradient>
<linearGradient id="paint9_linear" x1="135.271" y1="13.304" x2="135.271" y2="38.0918" gradientUnits="userSpaceOnUse">
<stop stop-color="white" stop-opacity="0"/>
<stop offset="0.9999" stop-color="#4F4F4F"/>
</linearGradient>
<linearGradient id="paint10_linear" x1="135.271" y1="13.304" x2="135.271" y2="38.0918" gradientUnits="userSpaceOnUse">
<stop offset="0.392265" stop-color="white" stop-opacity="0"/>
<stop offset="0.917127" stop-color="white"/>
</linearGradient>
<linearGradient id="paint11_linear" x1="135.271" y1="13.304" x2="135.271" y2="38.0918" gradientUnits="userSpaceOnUse">
<stop stop-color="white"/>
<stop offset="1" stop-color="white" stop-opacity="0"/>
</linearGradient>
</defs>
</svg>
